<svg width="162" height="225" viewBox="0 0 162 225" fill="none" xmlns="http://www.w3.org/2000/svg">
<path d="M132 0H30C13.4315 0 0 13.4315 0 30V195C0 211.569 13.4315 225 30 225H132C148.569 225 162 211.569 162 195V30C162 13.4315 148.569 0 132 0Z" fill="#BDBDBD"/>
<path d="M81 142C97.5685 142 111 128.569 111 112C111 95.4315 97.5685 82 81 82C64.4315 82 51 95.4315 51 112C51 128.569 64.4315 142 81 142Z" fill="#00FF5A"/>
<path d="M95 94L74 115.6L67 108.4L60 115.6L74 130L102 101.2L95 94Z" fill="white"/>
<path d="M29.7429 188.636L32.5078 197.692H32.6104L35.3754 188.636H38.7198L34.5483 201H30.57L26.3984 188.636H29.7429ZM40.901 201V191.727H43.853V201H40.901ZM42.38 190.647C41.9655 190.647 41.6093 190.51 41.3115 190.236C41.0136 189.958 40.8647 189.624 40.8647 189.234C40.8647 188.848 41.0136 188.518 41.3115 188.244C41.6093 187.966 41.9655 187.827 42.38 187.827C42.7986 187.827 43.1547 187.966 43.4485 188.244C43.7464 188.518 43.8953 188.848 43.8953 189.234C43.8953 189.624 43.7464 189.958 43.4485 190.236C43.1547 190.51 42.7986 190.647 42.38 190.647ZM50.9165 201.175C49.9466 201.175 49.1095 200.984 48.4052 200.602C47.7049 200.215 47.1656 199.666 46.7873 198.953C46.413 198.237 46.2258 197.386 46.2258 196.4C46.2258 195.442 46.415 194.605 46.7933 193.888C47.1716 193.168 47.7049 192.609 48.3931 192.21C49.0813 191.808 49.8923 191.607 50.826 191.607C51.486 191.607 52.0897 191.709 52.6371 191.914C53.1844 192.12 53.6573 192.424 54.0557 192.826C54.4542 193.228 54.7641 193.725 54.9854 194.317C55.2068 194.905 55.3175 195.579 55.3175 196.339V197.076H47.2582V195.362H52.5707C52.5666 195.048 52.4922 194.768 52.3473 194.522C52.2024 194.277 52.0032 194.086 51.7496 193.949C51.5001 193.808 51.2123 193.738 50.8863 193.738C50.5563 193.738 50.2605 193.812 49.9989 193.961C49.7373 194.106 49.53 194.305 49.3771 194.559C49.2242 194.808 49.1437 195.092 49.1356 195.41V197.154C49.1356 197.533 49.2101 197.865 49.359 198.151C49.5079 198.432 49.7192 198.652 49.9929 198.809C50.2666 198.966 50.5925 199.044 50.9709 199.044C51.2325 199.044 51.4699 199.008 51.6832 198.935C51.8965 198.863 52.0796 198.756 52.2326 198.615C52.3855 198.475 52.5002 198.301 52.5767 198.096L55.2873 198.175C55.1746 198.782 54.9271 199.312 54.5447 199.762C54.1664 200.209 53.6694 200.557 53.0536 200.807C52.4378 201.052 51.7255 201.175 50.9165 201.175ZM59.3082 201L56.8934 191.727H59.8575L61.1072 197.668H61.1857L62.5259 191.727H65.4175L66.794 197.625H66.8724L68.0859 191.727H71.05L68.6292 201H65.4719L64.023 195.597H63.9204L62.4715 201H59.3082ZM77.5871 201V191.727H80.5392V201H77.5871ZM79.0661 190.647C78.6516 190.647 78.2954 190.51 77.9976 190.236C77.6998 189.958 77.5509 189.624 77.5509 189.234C77.5509 188.848 77.6998 188.518 77.9976 188.244C78.2954 187.966 78.6516 187.827 79.0661 187.827C79.4847 187.827 79.8409 187.966 80.1347 188.244C80.4325 188.518 80.5814 188.848 80.5814 189.234C80.5814 189.624 80.4325 189.958 80.1347 190.236C79.8409 190.51 79.4847 190.647 79.0661 190.647ZM86.2202 195.712V201H83.2681V191.727H86.0753V193.43H86.1779C86.3832 192.862 86.7333 192.417 87.2284 192.096C87.7234 191.77 88.313 191.607 88.9972 191.607C89.6492 191.607 90.2146 191.753 90.6936 192.047C91.1765 192.337 91.5508 192.743 91.8164 193.267C92.0861 193.786 92.2189 194.394 92.2149 195.09V201H89.2628V195.669C89.2668 195.154 89.136 194.752 88.8704 194.462C88.6088 194.172 88.2446 194.027 87.7777 194.027C87.4678 194.027 87.1942 194.096 86.9567 194.233C86.7233 194.365 86.5422 194.557 86.4134 194.806C86.2886 195.056 86.2242 195.357 86.2202 195.712ZM103.723 201.175C102.745 201.175 101.906 200.974 101.206 200.571C100.51 200.169 99.9745 199.609 99.6002 198.893C99.2259 198.173 99.0387 197.34 99.0387 196.394C99.0387 195.444 99.2259 194.611 99.6002 193.895C99.9785 193.174 100.516 192.613 101.212 192.21C101.912 191.808 102.747 191.607 103.717 191.607C104.575 191.607 105.321 191.761 105.957 192.071C106.597 192.381 107.096 192.82 107.454 193.387C107.816 193.951 108.008 194.613 108.028 195.374H105.269C105.212 194.899 105.052 194.526 104.786 194.257C104.524 193.987 104.182 193.852 103.76 193.852C103.418 193.852 103.118 193.949 102.86 194.142C102.603 194.331 102.401 194.613 102.256 194.987C102.116 195.357 102.045 195.816 102.045 196.364C102.045 196.911 102.116 197.374 102.256 197.752C102.401 198.126 102.603 198.41 102.86 198.603C103.118 198.792 103.418 198.887 103.76 198.887C104.033 198.887 104.275 198.829 104.484 198.712C104.697 198.595 104.872 198.424 105.009 198.199C105.146 197.969 105.233 197.692 105.269 197.366H108.028C108 198.13 107.808 198.799 107.454 199.37C107.104 199.942 106.611 200.386 105.975 200.704C105.343 201.018 104.593 201.175 103.723 201.175ZM113.002 201.157C112.411 201.157 111.886 201.058 111.427 200.861C110.972 200.66 110.612 200.358 110.346 199.956C110.085 199.549 109.954 199.04 109.954 198.428C109.954 197.913 110.044 197.478 110.225 197.124C110.407 196.77 110.656 196.482 110.974 196.261C111.292 196.04 111.658 195.873 112.073 195.76C112.487 195.643 112.93 195.565 113.401 195.525C113.928 195.476 114.353 195.426 114.675 195.374C114.997 195.317 115.23 195.239 115.375 195.138C115.524 195.033 115.598 194.887 115.598 194.697V194.667C115.598 194.357 115.492 194.118 115.278 193.949C115.065 193.78 114.777 193.695 114.415 193.695C114.025 193.695 113.711 193.78 113.473 193.949C113.236 194.118 113.085 194.351 113.021 194.649L110.298 194.553C110.378 193.989 110.586 193.486 110.92 193.043C111.258 192.597 111.721 192.246 112.308 191.993C112.9 191.735 113.61 191.607 114.439 191.607C115.031 191.607 115.576 191.677 116.075 191.818C116.574 191.955 117.009 192.156 117.379 192.422C117.749 192.683 118.035 193.005 118.236 193.387C118.442 193.77 118.544 194.206 118.544 194.697V201H115.767V199.708H115.695C115.53 200.022 115.319 200.288 115.061 200.505C114.807 200.722 114.508 200.885 114.162 200.994C113.819 201.103 113.433 201.157 113.002 201.157ZM113.914 199.225C114.232 199.225 114.518 199.161 114.771 199.032C115.029 198.903 115.234 198.726 115.387 198.501C115.54 198.271 115.616 198.006 115.616 197.704V196.822C115.532 196.867 115.429 196.907 115.309 196.943C115.192 196.979 115.063 197.014 114.922 197.046C114.781 197.078 114.636 197.106 114.488 197.13C114.339 197.154 114.196 197.177 114.059 197.197C113.781 197.241 113.544 197.309 113.347 197.402C113.153 197.495 113.004 197.615 112.9 197.764C112.799 197.909 112.749 198.082 112.749 198.283C112.749 198.589 112.858 198.823 113.075 198.984C113.296 199.145 113.576 199.225 113.914 199.225ZM121.199 201V191.727H124.067V193.418H124.164C124.333 192.806 124.608 192.351 124.991 192.053C125.373 191.751 125.818 191.6 126.325 191.6C126.462 191.6 126.602 191.611 126.747 191.631C126.892 191.647 127.027 191.673 127.152 191.709V194.275C127.011 194.227 126.826 194.188 126.596 194.16C126.371 194.132 126.17 194.118 125.993 194.118C125.643 194.118 125.327 194.196 125.045 194.353C124.767 194.506 124.548 194.722 124.387 194.999C124.23 195.273 124.151 195.595 124.151 195.965V201H121.199ZM134.87 191.727V193.901H129.021V191.727H134.87ZM130.246 189.506H133.198V198.084C133.198 198.265 133.226 198.412 133.283 198.525C133.343 198.634 133.43 198.712 133.542 198.76C133.655 198.805 133.79 198.827 133.947 198.827C134.059 198.827 134.178 198.817 134.303 198.797C134.432 198.772 134.528 198.752 134.593 198.736L135.039 200.867C134.899 200.907 134.699 200.958 134.442 201.018C134.188 201.078 133.884 201.117 133.53 201.133C132.838 201.165 132.244 201.085 131.749 200.891C131.258 200.694 130.882 200.388 130.62 199.974C130.363 199.559 130.238 199.038 130.246 198.41V189.506Z" fill="#1D0B0B"/>
</svg>
