<svg width="32" height="32" viewBox="0 0 32 32" fill="none" xmlns="http://www.w3.org/2000/svg">
<path d="M15.9999 7.98847C11.5663 7.98847 7.98822 11.5666 7.98822 16.0002C7.98822 20.4338 11.5663 24.0119 15.9999 24.0119C20.4335 24.0119 24.0117 20.4338 24.0117 16.0002C24.0117 11.5666 20.4335 7.98847 15.9999 7.98847ZM15.9999 21.2072C13.1328 21.2072 10.7929 18.8674 10.7929 16.0002C10.7929 13.133 13.1328 10.7932 15.9999 10.7932C18.8671 10.7932 21.207 13.133 21.207 16.0002C21.207 18.8674 18.8671 21.2072 15.9999 21.2072ZM24.3398 5.79315C23.3046 5.79315 22.4687 6.62909 22.4687 7.66425C22.4687 8.6994 23.3046 9.53534 24.3398 9.53534C25.3749 9.53534 26.2109 8.70331 26.2109 7.66425C26.2112 7.41845 26.163 7.175 26.0691 6.94785C25.9752 6.7207 25.8373 6.51431 25.6635 6.3405C25.4897 6.16669 25.2833 6.02888 25.0562 5.93495C24.829 5.84103 24.5856 5.79285 24.3398 5.79315ZM31.6171 16.0002C31.6171 13.8439 31.6367 11.7072 31.5156 9.55487C31.3945 7.05487 30.8242 4.83612 28.996 3.008C27.164 1.17597 24.9492 0.60956 22.4492 0.488467C20.2929 0.367373 18.1562 0.386904 16.0038 0.386904C13.8476 0.386904 11.7109 0.367373 9.55854 0.488467C7.05854 0.60956 4.83979 1.17987 3.01166 3.008C1.17963 4.84003 0.613222 7.05487 0.492129 9.55487C0.371035 11.7111 0.390566 13.8478 0.390566 16.0002C0.390566 18.1525 0.371035 20.2932 0.492129 22.4455C0.613222 24.9455 1.18353 27.1642 3.01166 28.9924C4.84369 30.8244 7.05854 31.3908 9.55854 31.5119C11.7148 31.633 13.8515 31.6135 16.0038 31.6135C18.1601 31.6135 20.2968 31.633 22.4492 31.5119C24.9492 31.3908 27.1679 30.8205 28.996 28.9924C30.8281 27.1603 31.3945 24.9455 31.5156 22.4455C31.6406 20.2932 31.6171 18.1564 31.6171 16.0002ZM28.1796 25.2111C27.8945 25.9221 27.5507 26.4533 26.9999 27.0002C26.4492 27.551 25.9218 27.8947 25.2109 28.1799C23.1562 28.9963 18.2773 28.8127 15.9999 28.8127C13.7226 28.8127 8.83979 28.9963 6.7851 28.1838C6.07416 27.8986 5.54291 27.5549 4.99604 27.0041C4.44525 26.4533 4.1015 25.926 3.81635 25.215C3.00385 23.1564 3.18744 18.2775 3.18744 16.0002C3.18744 13.7228 3.00385 8.84003 3.81635 6.78534C4.1015 6.0744 4.44525 5.54315 4.99604 4.99628C5.54682 4.4494 6.07416 4.10175 6.7851 3.81659C8.83979 3.00409 13.7226 3.18769 15.9999 3.18769C18.2773 3.18769 23.1601 3.00409 25.2148 3.81659C25.9257 4.10175 26.457 4.4455 27.0038 4.99628C27.5546 5.54706 27.8984 6.0744 28.1835 6.78534C28.996 8.84003 28.8124 13.7228 28.8124 16.0002C28.8124 18.2775 28.996 23.1564 28.1796 25.2111Z" fill="white"/>
</svg>
