<svg width="488" height="94" viewBox="0 0 488 94" fill="none" xmlns="http://www.w3.org/2000/svg">
<path d="M21.8886 56.8465C21.8886 55.4999 22.4206 54.6024 23.4845 54.1534C24.5485 53.6546 25.8784 53.3554 27.4743 53.2556C29.1367 53.1061 30.8989 53.0314 32.7609 53.0314C34.6227 52.9814 36.3517 52.732 37.9477 52.2832C39.61 51.8344 40.9732 51.0862 42.0372 50.0389C43.1012 48.9915 43.6331 47.3707 43.6331 45.1764C43.6331 38.9423 43.1675 33.7055 42.2367 29.4665C41.3722 25.2273 39.5768 21.8607 36.8505 19.3671C34.1906 16.8735 30.4668 15.1778 25.6789 14.2801C20.9576 13.3824 14.7734 13.158 7.12625 13.6068C6.92677 13.557 6.59427 13.3824 6.1288 13.0832C5.72981 12.7839 5.29758 12.4598 4.83208 12.1107C4.36661 11.7615 3.93439 11.4374 3.53539 11.1381C3.20293 10.789 2.97019 10.5397 2.83719 10.39C2.77069 10.2903 2.73744 10.1905 2.73744 10.0908C2.67094 9.9412 2.6377 9.76663 2.6377 9.56714C2.6377 9.4674 2.67094 9.34271 2.73744 9.19309C2.73744 9.09336 2.77069 8.9936 2.83719 8.89387C3.03667 8.74425 3.30266 8.56968 3.63515 8.37019C4.03415 8.1707 4.46637 7.99615 4.93184 7.84653C5.46382 7.64704 5.89604 7.49743 6.22853 7.39767C6.62753 7.24806 6.92677 7.17324 7.12625 7.17324C8.38969 7.12338 10.2849 7.04857 12.8117 6.94881C15.4051 6.84908 18.331 6.74934 21.5894 6.64958C24.8477 6.49997 28.3388 6.35036 32.0627 6.20072C35.8529 6.05111 39.61 5.92644 43.3338 5.82668C47.1243 5.67707 50.7151 5.57731 54.1064 5.52745C57.5644 5.47758 60.6564 5.45264 63.3827 5.45264C63.3827 6.99869 62.9838 8.19564 62.1859 9.04348C61.3878 9.84144 60.3905 10.4649 59.1935 10.9137C58.0629 11.3127 56.7995 11.6119 55.403 11.8114C54.0732 12.0109 52.8098 12.2852 51.6128 12.6343C50.4824 12.9335 49.5181 13.4323 48.7202 14.1305C47.9221 14.7788 47.5232 15.7514 47.5232 17.0481C47.5232 19.6415 47.8558 22.1601 48.5208 24.6038C49.2522 27.0475 50.05 29.4914 50.9145 31.9351C51.779 34.329 52.5437 36.7478 53.2087 39.1917C53.9401 41.6354 54.3059 44.1042 54.3059 46.5976C54.3059 48.8419 53.6408 50.8869 52.311 52.732C50.9812 54.5773 49.219 56.1732 47.0244 57.5198C44.8965 58.8665 42.4696 59.9388 39.743 60.7367C37.0832 61.4847 34.4233 61.8588 31.7634 61.8588C30.6994 61.8588 29.5691 61.7841 28.3721 61.6343C27.2416 61.4847 26.1777 61.2104 25.1802 60.8114C24.2493 60.3626 23.4513 59.839 22.7863 59.2404C22.1878 58.5922 21.8886 57.7943 21.8886 56.8465ZM74.0755 40.9123C74.0755 38.219 74.5076 35.5259 75.3721 32.8328C76.2366 30.1398 77.5999 27.7208 79.4617 25.5763C81.3901 23.4317 83.8506 21.6862 86.843 20.3397C89.9018 18.9931 93.5924 18.3198 97.9146 18.3198C100.375 18.3198 102.536 18.6689 104.398 19.3671C106.26 20.0155 107.823 20.8883 109.086 21.9854C110.35 23.0828 111.281 24.3793 111.879 25.8757C112.544 27.3218 112.877 28.843 112.877 30.4389C112.877 32.9824 112.079 35.4512 110.483 37.8451C108.953 40.239 106.859 42.3584 104.199 44.2037C101.605 45.9993 98.6129 47.3707 95.2215 48.3183C91.8302 49.216 88.3725 49.4156 84.8481 48.9168C84.9145 50.3632 85.5464 51.5352 86.7431 52.4328C88.0065 53.2808 89.5029 53.9291 91.2319 54.3779C92.9606 54.8267 94.7562 55.1259 96.618 55.2757C98.4801 55.3753 100.142 55.4253 101.605 55.4253C103.135 55.4253 104.564 55.3255 105.894 55.1259C107.224 54.9265 108.554 54.702 109.884 54.4526C111.214 54.2034 112.544 53.9789 113.874 53.7793C115.27 53.5799 116.733 53.4801 118.263 53.4801C118.861 53.4801 119.46 53.505 120.058 53.555C120.657 53.6048 121.222 53.7295 121.754 53.9291C122.286 54.0787 122.718 54.353 123.051 54.752C123.383 55.101 123.549 55.55 123.549 56.0985C123.549 57.0461 123.084 57.844 122.153 58.4924C121.222 59.0908 120.025 59.6145 118.562 60.0635C117.166 60.5122 115.603 60.8614 113.874 61.1108C112.145 61.3102 110.449 61.4847 108.787 61.6343C107.191 61.7341 105.695 61.7841 104.298 61.7841C102.969 61.8339 101.971 61.8588 101.306 61.8588C97.0501 61.8588 93.2267 61.36 89.8354 60.3626C86.4441 59.3153 83.5847 57.8938 81.2571 56.0985C78.9297 54.2532 77.1343 52.0587 75.8709 49.5152C74.6739 46.9219 74.0755 44.0541 74.0755 40.9123ZM84.6487 36.0496C84.6487 37.7951 84.9477 39.067 85.5464 39.8649C86.2111 40.6629 87.7739 41.0619 90.2343 41.0619C91.9633 41.0619 93.6588 40.8374 95.3214 40.3886C96.9837 39.8898 98.4801 39.2166 99.8099 38.3686C101.206 37.5208 102.303 36.5235 103.102 35.3763C103.899 34.2292 104.298 32.9824 104.298 31.6359C104.298 30.8877 104.199 30.1147 103.999 29.3167C103.866 28.5187 103.534 27.7957 103.002 27.1473C102.47 26.4491 101.772 25.9005 100.907 25.5016C100.109 25.0526 99.0453 24.8283 97.7152 24.8283C95.7203 24.8283 93.8917 25.1773 92.2291 25.8757C90.6332 26.5238 89.2702 27.3967 88.1396 28.4938C87.0092 29.5412 86.1447 30.7381 85.5464 32.0847C84.9477 33.3814 84.6487 34.7031 84.6487 36.0496ZM134.841 31.1869C134.841 30.8877 134.841 30.364 134.841 29.6161C134.907 28.8181 134.94 27.995 134.94 27.1473C134.94 26.2995 134.94 25.5265 134.94 24.8283C135.007 24.0801 135.04 23.5564 135.04 23.2573C135.506 22.6587 136.038 22.0852 136.636 21.5366C137.301 20.9381 137.966 20.5392 138.631 20.3397C139.362 20.0903 140.127 20.0404 140.925 20.1901C141.79 20.3397 142.654 20.8384 143.519 21.6862V22.2848V23.2573C143.452 23.5067 143.319 24.105 143.119 25.0526C142.92 25.9503 142.687 26.9479 142.421 28.0451C142.155 29.1422 141.889 30.1647 141.623 31.1122C141.424 32.01 141.324 32.5835 141.324 32.8328C141.324 33.7804 141.457 34.9773 141.723 36.4237C141.989 37.82 142.355 39.2913 142.82 40.8374C143.352 42.3835 143.984 43.9295 144.715 45.4756C145.513 47.0217 146.444 48.4181 147.508 49.6648C148.572 50.8617 149.736 51.8593 150.999 52.6573C152.329 53.4552 153.859 53.8542 155.588 53.8542C157.716 53.8542 159.577 53.4303 161.173 52.5824C162.836 51.7346 164.266 50.6375 165.462 49.2909C166.659 47.9442 167.624 46.4231 168.355 44.7274C169.153 43.0319 169.785 41.3362 170.25 39.6404C170.716 37.8949 171.048 36.2241 171.248 34.6282C171.447 33.0322 171.547 31.6359 171.547 30.4389C171.547 29.242 171.414 28.1197 171.148 27.0726C170.948 25.9752 170.683 24.903 170.35 23.8556C170.017 22.8085 169.718 21.786 169.452 20.7885C169.253 19.7412 169.153 18.6939 169.153 17.6465C169.153 16.699 169.585 16.0257 170.45 15.6267C171.381 15.2277 172.412 15.0282 173.542 15.0282C174.938 15.0282 176.069 15.3524 176.933 16.0007C177.798 16.5992 178.463 17.3722 178.928 18.3198C179.46 19.2674 179.793 20.3646 179.926 21.6113C180.125 22.8085 180.225 24.0052 180.225 25.2024C180.225 26.3991 180.192 27.5463 180.125 28.6434C180.059 29.6908 180.025 30.5387 180.025 31.1869C180.025 32.8826 179.859 34.8029 179.527 36.9474C179.194 39.0919 178.596 41.3113 177.731 43.6054C176.933 45.8497 175.902 48.0689 174.639 50.2634C173.442 52.4577 171.946 54.4277 170.151 56.1732C168.422 57.8689 166.394 59.2404 164.066 60.2877C161.805 61.3351 159.245 61.8588 156.386 61.8588C153.393 61.8588 150.767 61.3351 148.506 60.2877C146.245 59.1906 144.316 57.7691 142.72 56.0236C141.191 54.2283 139.894 52.2085 138.83 49.9642C137.766 47.7199 136.935 45.4756 136.337 43.2313C135.805 40.987 135.406 38.8176 135.14 36.7229C134.94 34.5784 134.841 32.733 134.841 31.1869ZM191.217 36.4984C191.217 35.2018 191.649 34.2792 192.513 33.7306C193.378 33.132 194.774 32.8328 196.703 32.8328H197.7C197.9 33.6308 198.133 34.5535 198.398 35.6008C198.664 36.6482 199.063 37.7204 199.595 38.8176C200.127 39.9147 200.759 40.9372 201.491 41.8847C202.222 42.7825 203.12 43.5056 204.184 44.0541C204.25 42.3086 204.816 40.638 205.88 39.0421C207.01 37.3961 208.373 35.9498 209.969 34.7031C211.631 33.4063 213.427 32.3341 215.355 31.4863C217.35 30.5885 219.312 29.9902 221.24 29.6908H223.435C226.627 29.6908 229.353 30.2393 231.614 31.3367C233.875 32.3841 235.737 33.7804 237.199 35.5259C238.729 37.2216 239.893 39.1666 240.691 41.3611C241.488 43.5556 242.087 45.7997 242.486 48.094C242.952 50.3381 243.217 52.5326 243.284 54.6771C243.417 56.7718 243.484 58.5671 243.484 60.0635H236.202C235.803 57.071 235.304 54.2034 234.706 51.4603C234.506 50.3632 234.241 49.216 233.908 48.0191C233.575 46.7723 233.21 45.6252 232.811 44.5778C232.412 43.4807 231.98 42.4831 231.514 41.5856C231.049 40.638 230.517 39.84 229.918 39.1917C229.652 38.9921 229.286 38.7178 228.821 38.3686C228.422 38.0196 227.99 37.6704 227.524 37.3215C227.059 36.9723 226.627 36.6731 226.227 36.4237C225.828 36.1743 225.596 36.0496 225.529 36.0496C223.534 35.6506 221.805 35.9498 220.342 36.9474C218.88 37.8949 217.583 39.1917 216.452 40.8374C215.322 42.4831 214.391 44.3535 213.66 46.448C212.995 48.5428 212.43 50.5626 211.964 52.5077C211.498 54.4028 211.166 56.0736 210.966 57.5198C210.767 58.9163 210.634 59.7641 210.567 60.0635C208.905 60.961 207.342 61.2353 205.88 60.8863C204.416 60.4873 203.02 59.6894 201.69 58.4924C200.427 57.2955 199.263 55.7993 198.199 54.0038C197.202 52.2085 196.27 50.3132 195.406 48.3183C194.542 46.2736 193.744 44.2288 193.012 42.1839C192.347 40.1392 191.749 38.2441 191.217 36.4984Z" fill="#090909"/>
<path d="M254.077 9.94111C254.077 8.99351 254.043 7.97111 253.977 6.87392C253.91 5.77671 254.01 4.75434 254.276 3.80674C254.609 2.85916 255.141 2.08613 255.872 1.48766C256.67 0.839308 257.933 0.515137 259.662 0.515137C260.926 1.81183 261.724 3.43269 262.056 5.37773C262.455 7.27291 262.721 9.29276 262.854 11.4373C262.987 13.532 263.12 15.6266 263.253 17.7212C263.452 19.8159 264.018 21.6612 264.949 23.2572C265.015 23.4566 265.314 23.7559 265.846 24.1549C266.445 24.5039 266.844 24.7284 267.043 24.8282C269.038 23.5315 270.834 22.1849 272.43 20.7884C274.092 19.392 275.721 18.0454 277.317 16.7487C278.913 15.4022 280.509 14.1304 282.105 12.9335C283.701 11.7365 285.429 10.6892 287.293 9.79148C289.219 8.89378 291.347 8.19554 293.677 7.69683C296.068 7.14823 298.764 6.87392 301.754 6.87392C301.754 8.07087 301.19 9.26782 300.06 10.4648C298.928 11.6617 297.498 12.8836 295.77 14.1304C294.04 15.3274 292.147 16.5742 290.085 17.8709C288.022 19.1177 286.028 20.4144 284.101 21.761C282.171 23.0576 280.442 24.3792 278.913 25.7258C277.384 27.0225 276.287 28.3441 275.621 29.6907C276.752 29.8903 278.614 30.3888 281.207 31.1868C283.868 31.935 286.859 32.8825 290.184 34.0297C293.574 35.1268 297.067 36.3238 300.659 37.6205C304.248 38.9173 307.539 40.2138 310.532 41.5106C313.526 42.7575 315.952 43.9543 317.813 45.1014C319.742 46.1986 320.707 47.0963 320.707 47.7945C320.707 47.9441 320.707 48.2684 320.707 48.7672C320.707 49.2159 320.639 49.6898 320.508 50.1884C320.44 50.6872 320.241 51.1359 319.909 51.5351C319.575 51.8841 319.044 52.0586 318.312 52.0586C315.52 52.0088 312.893 51.6347 310.433 50.9366C307.973 50.1884 305.579 49.2908 303.252 48.2435C300.923 47.1461 298.596 46.0241 296.27 44.8769C294.009 43.68 291.679 42.5579 289.287 41.5106C286.893 40.4134 284.399 39.5406 281.806 38.8922C279.279 38.194 276.519 37.795 273.527 37.6952C272.529 38.8922 272.097 40.0642 272.23 41.2114C272.363 42.3085 272.795 43.4308 273.527 44.5777C274.325 45.6749 275.256 46.822 276.32 48.019C277.384 49.1661 278.315 50.388 279.113 51.6847C279.91 52.9315 280.442 54.2531 280.709 55.6494C280.974 57.046 280.675 58.5172 279.811 60.0634C279.678 60.213 279.412 60.3874 279.013 60.587C278.68 60.7366 278.281 60.9111 277.816 61.1107C277.417 61.3101 276.985 61.4597 276.519 61.5595C276.054 61.6593 275.755 61.7091 275.621 61.7091C274.757 61.7091 273.793 61.0856 272.729 59.8389C271.731 58.5921 270.634 56.8964 269.437 54.7519C268.307 52.6074 267.11 50.1635 265.846 47.4206C264.649 44.6277 263.452 41.76 262.256 38.8175C261.125 35.825 260.061 32.8327 259.064 29.8403C258.133 26.7982 257.268 23.9802 256.47 21.387C255.739 18.7436 255.141 16.4246 254.675 14.4297C254.276 12.4347 254.077 10.9385 254.077 9.94111ZM329.604 46.5229C329.604 43.4308 330.569 40.563 332.495 37.9197C334.425 35.2266 336.953 32.9325 340.076 31.0372C343.268 29.0923 346.826 27.5711 350.75 26.4739C354.739 25.3768 358.762 24.8282 362.819 24.8282C365.081 24.8282 367.075 25.3768 368.803 26.4739C370.599 27.5711 372.094 28.9176 373.292 30.5135C374.489 32.0597 375.388 33.7054 375.987 35.4511C376.651 37.1967 376.983 38.7177 376.983 40.0144C376.983 42.8073 376.086 45.5253 374.29 48.1686C372.494 50.7621 370.168 53.0811 367.308 55.1258C364.448 57.1209 361.222 58.7417 357.633 59.9885C354.041 61.2352 350.452 61.8587 346.86 61.8587C343.668 61.8587 340.976 61.4597 338.78 60.6617C336.587 59.814 334.825 58.7168 333.494 57.3701C332.163 55.9737 331.168 54.3529 330.501 52.5076C329.902 50.6125 329.604 48.6176 329.604 46.5229ZM338.082 47.2708C338.082 48.5676 338.215 49.7147 338.482 50.7121C338.814 51.6596 339.344 52.4827 340.076 53.1809C340.876 53.879 341.906 54.4276 343.169 54.8266C344.431 55.1758 345.995 55.3503 347.856 55.3503C350.319 55.3503 352.779 54.8515 355.238 53.8541C357.698 52.8068 359.894 51.51 361.821 49.9641C363.815 48.3682 365.413 46.6227 366.61 44.7273C367.807 42.8322 368.406 40.9869 368.406 39.1916C368.406 38.3936 368.304 37.5207 368.105 36.5732C367.907 35.6256 367.575 34.7528 367.109 33.9548C366.644 33.1568 365.977 32.4836 365.115 31.935C364.249 31.3864 363.151 31.1121 361.821 31.1121C360.623 31.1121 359.196 31.4113 357.534 32.0099C355.936 32.6083 354.24 33.3813 352.447 34.3289C350.716 35.2764 348.988 36.3487 347.26 37.5456C345.598 38.7426 344.068 39.9395 342.67 41.1365C341.274 42.3334 340.144 43.4806 339.279 44.5777C338.482 45.6749 338.082 46.5726 338.082 47.2708ZM384.286 23.0327C384.286 22.5839 384.286 22.1349 384.286 21.6861C384.351 21.1874 384.484 20.7386 384.683 20.3396C384.95 19.8907 385.282 19.5665 385.682 19.3671C386.147 19.1177 386.811 18.993 387.676 18.993C387.741 18.993 387.81 18.993 387.875 18.993C388.008 18.993 388.142 18.993 388.275 18.993C388.473 19.0429 388.641 19.0678 388.774 19.0678C390.037 20.3645 391.135 22.0353 392.065 24.08C392.996 26.0749 393.893 28.2194 394.758 30.5135C395.623 32.7578 396.554 35.0522 397.55 37.396C398.548 39.6901 399.845 41.76 401.439 43.6053C403.037 45.4506 404.997 46.9218 407.327 48.019C409.653 49.1161 412.544 49.59 416.003 49.4404C417.532 49.4404 418.531 48.8169 418.996 47.5702C419.461 46.3233 419.694 44.7273 419.694 42.7824C419.759 40.8373 419.694 38.6928 419.495 36.3487C419.362 34.0048 419.362 31.7854 419.495 29.6907C419.694 27.5462 420.193 25.676 420.991 24.08C421.856 22.4841 423.317 21.4118 425.38 20.8633C426.245 22.16 426.943 24.2047 427.474 26.9976C428.072 29.7407 428.504 32.9326 428.77 36.5732C429.037 40.164 429.17 44.079 429.17 48.3182C429.17 52.5076 429.037 56.6968 428.77 60.8862C428.504 65.0256 428.106 69.0155 427.573 72.8557C427.042 76.6959 426.444 80.0623 425.78 82.955C425.113 85.8476 424.316 88.1168 423.385 89.7626C422.52 91.4583 421.589 92.1814 420.591 91.932C419.195 90.9346 418.1 89.6379 417.299 88.0419C416.567 86.446 416.037 84.6756 415.705 82.7305C415.438 80.7853 415.339 78.7157 415.404 76.5212C415.472 74.3767 415.572 72.2073 415.705 70.0128C415.904 67.8185 416.102 65.674 416.304 63.5793C416.567 61.4846 416.701 59.5646 416.701 57.8191C414.309 57.9687 411.846 57.6944 409.321 56.9962C406.861 56.2978 404.433 55.2256 402.038 53.7792C399.646 52.2831 397.351 50.4878 395.158 48.3931C393.03 46.2984 391.135 43.9294 389.472 41.2861C387.875 38.643 386.612 35.8001 385.682 32.7578C384.751 29.6658 384.286 26.4241 384.286 23.0327ZM440.261 46.5229C440.261 43.4308 441.226 40.563 443.155 37.9197C445.081 35.2266 447.609 32.9325 450.736 31.0372C453.928 29.0923 457.486 27.5711 461.407 26.4739C465.399 25.3768 469.422 24.8282 473.476 24.8282C475.737 24.8282 477.732 25.3768 479.463 26.4739C481.256 27.5711 482.754 28.9176 483.951 30.5135C485.149 32.0597 486.045 33.7054 486.644 35.4511C487.308 37.1967 487.64 38.7177 487.64 40.0144C487.64 42.8073 486.743 45.5253 484.947 48.1686C483.151 50.7621 480.825 53.0811 477.965 55.1258C475.105 57.1209 471.882 58.7417 468.29 59.9885C464.701 61.2352 461.109 61.8587 457.517 61.8587C454.325 61.8587 451.633 61.4597 449.439 60.6617C447.243 59.814 445.482 58.7168 444.151 57.3701C442.823 55.9737 441.824 54.3529 441.16 52.5076C440.562 50.6125 440.261 48.6176 440.261 46.5229ZM448.741 47.2708C448.741 48.5676 448.872 49.7147 449.139 50.7121C449.471 51.6596 450.004 52.4827 450.736 53.1809C451.533 53.879 452.563 54.4276 453.826 54.8266C455.091 55.1758 456.654 55.3503 458.516 55.3503C460.976 55.3503 463.435 54.8515 465.895 53.8541C468.358 52.8068 470.551 51.51 472.48 49.9641C474.475 48.3682 476.069 46.6227 477.267 44.7273C478.464 42.8322 479.063 40.9869 479.063 39.1916C479.063 38.3936 478.963 37.5207 478.765 36.5732C478.563 35.6256 478.231 34.7528 477.766 33.9548C477.301 33.1568 476.637 32.4836 475.772 31.935C474.906 31.3864 473.808 31.1121 472.48 31.1121C471.283 31.1121 469.853 31.4113 468.191 32.0099C466.593 32.6083 464.899 33.3813 463.103 34.3289C461.376 35.2764 459.645 36.3487 457.917 37.5456C456.254 38.7426 454.725 39.9395 453.329 41.1365C451.933 42.3334 450.801 43.4806 449.936 44.5777C449.139 45.6749 448.741 46.5726 448.741 47.2708Z" fill="white"/>
</svg>
