<svg width="30" height="31" viewBox="0 0 30 31" fill="none" xmlns="http://www.w3.org/2000/svg">
<path d="M8.33333 19.9824H23.3333C24.25 19.9824 25 20.7712 25 21.7353C25 22.6994 24.25 23.4882 23.3333 23.4882H6.66667C5.75 23.4882 5 22.6994 5 21.7353V4.20589H1.66667C0.75 4.20589 0 3.41707 0 2.45295C0 1.48884 0.75 0.700012 1.66667 0.700012H6.66667C7.58333 0.700012 8.33333 1.48884 8.33333 2.45295V5.95884H30L23.3333 18.2294H8.33333V19.9824ZM7.5 25.2412C8.88333 25.2412 10 26.4157 10 27.8706C10 29.3255 8.88333 30.5 7.5 30.5C6.11667 30.5 5 29.3255 5 27.8706C5 26.4157 6.11667 25.2412 7.5 25.2412ZM22.5 25.2412C23.8833 25.2412 25 26.4157 25 27.8706C25 29.3255 23.8833 30.5 22.5 30.5C21.1167 30.5 20 29.3255 20 27.8706C20 26.4157 21.1167 25.2412 22.5 25.2412Z" fill="#FB6602"/>
</svg>
